<svg width="468" height="96" viewBox="0 0 468 96" fill="none" xmlns="http://www.w3.org/2000/svg">
<g clip-path="url(#clip0_0_3)">
<path fill-rule="evenodd" clip-rule="evenodd" d="M48 96C74.5097 96 96 74.5097 96 48C96 21.4903 74.5097 0 48 0C21.4903 0 0 21.4903 0 48C0 74.5097 21.4903 96 48 96ZM80.0001 52C80.0001 67.464 67.4641 80 52.0001 80C36.5361 80 24.0001 67.464 24.0001 52C24.0001 49.1303 24.4318 46.3615 25.2338 43.7548C27.4288 48.6165 32.3194 52 38.0001 52C45.7321 52 52.0001 45.732 52.0001 38C52.0001 32.3192 48.6166 27.4287 43.755 25.2337C46.3616 24.4317 49.1304 24 52.0001 24C67.4641 24 80.0001 36.536 80.0001 52Z" fill="url(#paint0_linear_0_3)"/>
<path opacity="0.2" fill-rule="evenodd" clip-rule="evenodd" d="M80.0002 52C80.0002 67.464 67.4642 80 52.0002 80C36.864 80 24.5329 67.9897 24.017 52.9791C24.0057 53.318 24 53.6583 24 54C24 70.5685 37.4315 84 54 84C70.5685 84 84 70.5685 84 54C84 37.4315 70.5685 24 54 24C53.6597 24 53.3207 24.0057 52.9831 24.0169C67.9919 24.5347 80.0002 36.865 80.0002 52Z" fill="#131928"/>
<path fill-rule="evenodd" clip-rule="evenodd" d="M48 12C28.1177 12 12 28.1177 12 48C12 50.2091 10.2091 52 8 52C5.79086 52 4 50.2091 4 48C4 23.6995 23.6995 4 48 4C50.2091 4 52 5.79086 52 8C52 10.2091 50.2091 12 48 12Z" fill="url(#paint1_linear_0_3)"/>
<path d="M152.727 45.1136L146.568 46.2045C146.311 45.4167 145.902 44.6667 145.341 43.9545C144.795 43.2424 144.053 42.6591 143.114 42.2045C142.174 41.75 141 41.5227 139.591 41.5227C137.667 41.5227 136.061 41.9545 134.773 42.8182C133.485 43.6667 132.841 44.7652 132.841 46.1136C132.841 47.2803 133.273 48.2197 134.136 48.9318C135 49.6439 136.394 50.2273 138.318 50.6818L143.864 51.9545C147.076 52.697 149.47 53.8409 151.045 55.3864C152.621 56.9318 153.409 58.9394 153.409 61.4091C153.409 63.5 152.803 65.3636 151.591 67C150.394 68.6212 148.72 69.8939 146.568 70.8182C144.432 71.7424 141.955 72.2045 139.136 72.2045C135.227 72.2045 132.038 71.3712 129.568 69.7045C127.098 68.0227 125.583 65.6364 125.023 62.5455L131.591 61.5455C132 63.2576 132.841 64.553 134.114 65.4318C135.386 66.2955 137.045 66.7273 139.091 66.7273C141.318 66.7273 143.098 66.2652 144.432 65.3409C145.765 64.4015 146.432 63.2576 146.432 61.9091C146.432 60.8182 146.023 59.9015 145.205 59.1591C144.402 58.4167 143.167 57.8561 141.5 57.4773L135.591 56.1818C132.333 55.4394 129.924 54.2576 128.364 52.6364C126.818 51.0152 126.045 48.9621 126.045 46.4773C126.045 44.4167 126.621 42.6136 127.773 41.0682C128.924 39.5227 130.515 38.3182 132.545 37.4545C134.576 36.5758 136.902 36.1364 139.523 36.1364C143.295 36.1364 146.265 36.9545 148.432 38.5909C150.598 40.2121 152.03 42.3864 152.727 45.1136ZM167.676 50.7727V71.5H160.881V24.9545H167.585V42.2727H168.017C168.835 40.3939 170.085 38.9015 171.767 37.7955C173.449 36.6894 175.646 36.1364 178.358 36.1364C180.752 36.1364 182.843 36.6288 184.631 37.6136C186.434 38.5985 187.828 40.0682 188.812 42.0227C189.812 43.9621 190.312 46.3864 190.312 49.2955V71.5H183.517V50.1136C183.517 47.553 182.858 45.5682 181.54 44.1591C180.222 42.7348 178.388 42.0227 176.04 42.0227C174.434 42.0227 172.994 42.3636 171.722 43.0455C170.464 43.7273 169.472 44.7273 168.744 46.0455C168.032 47.3485 167.676 48.9242 167.676 50.7727ZM209.54 72.2727C207.328 72.2727 205.328 71.8636 203.54 71.0455C201.752 70.2121 200.335 69.0076 199.29 67.4318C198.259 65.8561 197.744 63.9242 197.744 61.6364C197.744 59.6667 198.123 58.0455 198.881 56.7727C199.638 55.5 200.661 54.4924 201.949 53.75C203.237 53.0076 204.676 52.447 206.267 52.0682C207.858 51.6894 209.479 51.4015 211.131 51.2045C213.222 50.9621 214.919 50.7652 216.222 50.6136C217.525 50.447 218.472 50.1818 219.062 49.8182C219.653 49.4545 219.949 48.8636 219.949 48.0455V47.8864C219.949 45.9015 219.388 44.3636 218.267 43.2727C217.161 42.1818 215.509 41.6364 213.312 41.6364C211.025 41.6364 209.222 42.1439 207.903 43.1591C206.6 44.1591 205.699 45.2727 205.199 46.5L198.812 45.0455C199.57 42.9242 200.676 41.2121 202.131 39.9091C203.6 38.5909 205.29 37.6364 207.199 37.0455C209.108 36.4394 211.116 36.1364 213.222 36.1364C214.616 36.1364 216.093 36.303 217.653 36.6364C219.229 36.9545 220.699 37.5455 222.062 38.4091C223.441 39.2727 224.57 40.5076 225.449 42.1136C226.328 43.7045 226.767 45.7727 226.767 48.3182V71.5H220.131V66.7273H219.858C219.419 67.6061 218.759 68.4697 217.881 69.3182C217.002 70.1667 215.873 70.8712 214.494 71.4318C213.116 71.9924 211.464 72.2727 209.54 72.2727ZM211.017 66.8182C212.896 66.8182 214.502 66.447 215.835 65.7045C217.184 64.9621 218.206 63.9924 218.903 62.7955C219.616 61.5833 219.972 60.2879 219.972 58.9091V54.4091C219.729 54.6515 219.259 54.8788 218.562 55.0909C217.881 55.2879 217.1 55.4621 216.222 55.6136C215.343 55.75 214.487 55.8788 213.653 56C212.82 56.1061 212.123 56.197 211.562 56.2727C210.244 56.4394 209.04 56.7197 207.949 57.1136C206.873 57.5076 206.009 58.0758 205.358 58.8182C204.722 59.5455 204.403 60.5152 204.403 61.7273C204.403 63.4091 205.025 64.6818 206.267 65.5455C207.509 66.3939 209.093 66.8182 211.017 66.8182ZM235.818 71.5V36.5909H242.386V42.1364H242.75C243.386 40.2576 244.508 38.7803 246.114 37.7045C247.735 36.6136 249.568 36.0682 251.614 36.0682C252.038 36.0682 252.538 36.0833 253.114 36.1136C253.705 36.1439 254.167 36.1818 254.5 36.2273V42.7273C254.227 42.6515 253.742 42.5682 253.045 42.4773C252.348 42.3712 251.652 42.3182 250.955 42.3182C249.348 42.3182 247.917 42.6591 246.659 43.3409C245.417 44.0076 244.432 44.9394 243.705 46.1364C242.977 47.3182 242.614 48.6667 242.614 50.1818V71.5H235.818ZM266.631 59.6591L266.585 51.3636H267.767L281.676 36.5909H289.812L273.949 53.4091H272.881L266.631 59.6591ZM260.381 71.5V24.9545H267.176V71.5H260.381ZM282.426 71.5L269.926 54.9091L274.608 50.1591L290.767 71.5H282.426ZM326.057 36.5909L313.398 71.5H306.125L293.443 36.5909H300.739L309.58 63.4545H309.943L318.761 36.5909H326.057ZM341.602 72.2727C339.39 72.2727 337.39 71.8636 335.602 71.0455C333.814 70.2121 332.398 69.0076 331.352 67.4318C330.322 65.8561 329.807 63.9242 329.807 61.6364C329.807 59.6667 330.186 58.0455 330.943 56.7727C331.701 55.5 332.723 54.4924 334.011 53.75C335.299 53.0076 336.739 52.447 338.33 52.0682C339.92 51.6894 341.542 51.4015 343.193 51.2045C345.284 50.9621 346.981 50.7652 348.284 50.6136C349.587 50.447 350.534 50.1818 351.125 49.8182C351.716 49.4545 352.011 48.8636 352.011 48.0455V47.8864C352.011 45.9015 351.451 44.3636 350.33 43.2727C349.223 42.1818 347.572 41.6364 345.375 41.6364C343.087 41.6364 341.284 42.1439 339.966 43.1591C338.663 44.1591 337.761 45.2727 337.261 46.5L330.875 45.0455C331.633 42.9242 332.739 41.2121 334.193 39.9091C335.663 38.5909 337.352 37.6364 339.261 37.0455C341.17 36.4394 343.178 36.1364 345.284 36.1364C346.678 36.1364 348.155 36.303 349.716 36.6364C351.292 36.9545 352.761 37.5455 354.125 38.4091C355.504 39.2727 356.633 40.5076 357.511 42.1136C358.39 43.7045 358.83 45.7727 358.83 48.3182V71.5H352.193V66.7273H351.92C351.481 67.6061 350.822 68.4697 349.943 69.3182C349.064 70.1667 347.936 70.8712 346.557 71.4318C345.178 71.9924 343.527 72.2727 341.602 72.2727ZM343.08 66.8182C344.958 66.8182 346.564 66.447 347.898 65.7045C349.246 64.9621 350.269 63.9924 350.966 62.7955C351.678 61.5833 352.034 60.2879 352.034 58.9091V54.4091C351.792 54.6515 351.322 54.8788 350.625 55.0909C349.943 55.2879 349.163 55.4621 348.284 55.6136C347.405 55.75 346.549 55.8788 345.716 56C344.883 56.1061 344.186 56.197 343.625 56.2727C342.307 56.4394 341.102 56.7197 340.011 57.1136C338.936 57.5076 338.072 58.0758 337.42 58.8182C336.784 59.5455 336.466 60.5152 336.466 61.7273C336.466 63.4091 337.087 64.6818 338.33 65.5455C339.572 66.3939 341.155 66.8182 343.08 66.8182ZM374.676 24.9545V71.5H367.881V24.9545H374.676ZM390.614 24.9545V71.5H383.818V24.9545H390.614ZM414.801 72.2045C411.362 72.2045 408.4 71.4697 405.915 70C403.445 68.5152 401.536 66.4318 400.188 63.75C398.854 61.053 398.188 57.8939 398.188 54.2727C398.188 50.697 398.854 47.5455 400.188 44.8182C401.536 42.0909 403.415 39.9621 405.824 38.4318C408.248 36.9015 411.081 36.1364 414.324 36.1364C416.294 36.1364 418.203 36.4621 420.051 37.1136C421.9 37.7652 423.559 38.7879 425.028 40.1818C426.498 41.5758 427.657 43.3864 428.506 45.6136C429.354 47.8258 429.778 50.5152 429.778 53.6818V56.0909H402.028V51H423.119C423.119 49.2121 422.756 47.6288 422.028 46.25C421.301 44.8561 420.278 43.7576 418.96 42.9545C417.657 42.1515 416.127 41.75 414.369 41.75C412.46 41.75 410.794 42.2197 409.369 43.1591C407.96 44.0833 406.869 45.2955 406.097 46.7955C405.339 48.2803 404.96 49.8939 404.96 51.6364V55.6136C404.96 57.947 405.369 59.9318 406.188 61.5682C407.021 63.2045 408.18 64.4545 409.665 65.3182C411.15 66.1667 412.884 66.5909 414.869 66.5909C416.157 66.5909 417.331 66.4091 418.392 66.0455C419.453 65.6667 420.369 65.1061 421.142 64.3636C421.915 63.6212 422.506 62.7045 422.915 61.6136L429.347 62.7727C428.831 64.6667 427.907 66.3258 426.574 67.75C425.256 69.1591 423.597 70.2576 421.597 71.0455C419.612 71.8182 417.347 72.2045 414.801 72.2045ZM440.614 84.5909C439.598 84.5909 438.674 84.5076 437.841 84.3409C437.008 84.1894 436.386 84.0227 435.977 83.8409L437.614 78.2727C438.856 78.6061 439.962 78.75 440.932 78.7045C441.902 78.6591 442.758 78.2955 443.5 77.6136C444.258 76.9318 444.924 75.8182 445.5 74.2727L446.341 71.9545L433.568 36.5909H440.841L449.682 63.6818H450.045L458.886 36.5909H466.182L451.795 76.1591C451.129 77.9773 450.28 79.5152 449.25 80.7727C448.22 82.0455 446.992 83 445.568 83.6364C444.144 84.2727 442.492 84.5909 440.614 84.5909Z" fill="white"/>
</g>
<defs>
<linearGradient id="paint0_linear_0_3" x1="48" y1="0" x2="117.5" y2="69.5" gradientUnits="userSpaceOnUse">
<stop stop-color="#C395FC"/>
<stop offset="1" stop-color="#4F65F5"/>
</linearGradient>
<linearGradient id="paint1_linear_0_3" x1="28" y1="8" x2="28" y2="48" gradientUnits="userSpaceOnUse">
<stop stop-color="white" stop-opacity="0.4"/>
<stop offset="1" stop-color="white" stop-opacity="0"/>
</linearGradient>
<clipPath id="clip0_0_3">
<rect width="468" height="96" fill="white"/>
</clipPath>
</defs>
</svg>
