<svg width="346" height="179" viewBox="0 0 346 179" fill="none" xmlns="http://www.w3.org/2000/svg">
<path d="M177 80C192.464 80 205 67.464 205 52C205 36.536 192.464 24 177 24C161.536 24 149 36.536 149 52C149 67.464 161.536 80 177 80Z" fill="#131928"/>
<path fill-rule="evenodd" clip-rule="evenodd" d="M173 96C199.51 96 221 74.5097 221 48C221 21.4903 199.51 0 173 0C146.49 0 125 21.4903 125 48C125 74.5097 146.49 96 173 96ZM205 52C205 67.464 192.464 80 177 80C161.536 80 149 67.464 149 52C149 49.1303 149.432 46.3615 150.234 43.7548C152.429 48.6165 157.319 52 163 52C170.732 52 177 45.732 177 38C177 32.3192 173.617 27.4287 168.755 25.2337C171.362 24.4317 174.13 24 177 24C192.464 24 205 36.536 205 52Z" fill="url(#paint0_linear_1_15)"/>
<path opacity="0.2" fill-rule="evenodd" clip-rule="evenodd" d="M205 52C205 67.464 192.464 80 177 80C161.864 80 149.533 67.9897 149.017 52.9791C149.006 53.318 149 53.6584 149 54C149 70.5686 162.431 84 179 84C195.569 84 209 70.5686 209 54C209 37.4315 195.569 24 179 24C178.66 24 178.321 24.0057 177.983 24.0169C192.992 24.5347 205 36.865 205 52Z" fill="#131928"/>
<path fill-rule="evenodd" clip-rule="evenodd" d="M173 12C153.118 12 137 28.1177 137 48C137 50.2091 135.209 52 133 52C130.791 52 129 50.2091 129 48C129 23.6995 148.699 4 173 4C175.209 4 177 5.79086 177 8C177 10.2091 175.209 12 173 12Z" fill="url(#paint1_linear_1_15)"/>
<path d="M30.7273 138.614L24.5682 139.705C24.3106 138.917 23.9015 138.167 23.3409 137.455C22.7955 136.742 22.053 136.159 21.1136 135.705C20.1742 135.25 19 135.023 17.5909 135.023C15.6667 135.023 14.0606 135.455 12.7727 136.318C11.4848 137.167 10.8409 138.265 10.8409 139.614C10.8409 140.78 11.2727 141.72 12.1364 142.432C13 143.144 14.3939 143.727 16.3182 144.182L21.8636 145.455C25.0758 146.197 27.4697 147.341 29.0455 148.886C30.6212 150.432 31.4091 152.439 31.4091 154.909C31.4091 157 30.803 158.864 29.5909 160.5C28.3939 162.121 26.7197 163.394 24.5682 164.318C22.4318 165.242 19.9545 165.705 17.1364 165.705C13.2273 165.705 10.0379 164.871 7.56818 163.205C5.09848 161.523 3.58333 159.136 3.02273 156.045L9.59091 155.045C10 156.758 10.8409 158.053 12.1136 158.932C13.3864 159.795 15.0455 160.227 17.0909 160.227C19.3182 160.227 21.0985 159.765 22.4318 158.841C23.7652 157.902 24.4318 156.758 24.4318 155.409C24.4318 154.318 24.0227 153.402 23.2045 152.659C22.4015 151.917 21.1667 151.356 19.5 150.977L13.5909 149.682C10.3333 148.939 7.92424 147.758 6.36364 146.136C4.81818 144.515 4.04545 142.462 4.04545 139.977C4.04545 137.917 4.62121 136.114 5.77273 134.568C6.92424 133.023 8.51515 131.818 10.5455 130.955C12.5758 130.076 14.9015 129.636 17.5227 129.636C21.2955 129.636 24.2652 130.455 26.4318 132.091C28.5985 133.712 30.0303 135.886 30.7273 138.614ZM45.6761 144.273V165H38.8807V118.455H45.5852V135.773H46.017C46.8352 133.894 48.0852 132.402 49.767 131.295C51.4489 130.189 53.6458 129.636 56.358 129.636C58.7519 129.636 60.8428 130.129 62.6307 131.114C64.4337 132.098 65.8277 133.568 66.8125 135.523C67.8125 137.462 68.3125 139.886 68.3125 142.795V165H61.517V143.614C61.517 141.053 60.858 139.068 59.5398 137.659C58.2216 136.235 56.3883 135.523 54.0398 135.523C52.4337 135.523 50.9943 135.864 49.7216 136.545C48.464 137.227 47.4716 138.227 46.7443 139.545C46.0322 140.848 45.6761 142.424 45.6761 144.273ZM87.5398 165.773C85.3277 165.773 83.3277 165.364 81.5398 164.545C79.7519 163.712 78.3352 162.508 77.2898 160.932C76.2595 159.356 75.7443 157.424 75.7443 155.136C75.7443 153.167 76.1231 151.545 76.8807 150.273C77.6383 149 78.661 147.992 79.9489 147.25C81.2367 146.508 82.6761 145.947 84.267 145.568C85.858 145.189 87.4792 144.902 89.1307 144.705C91.2216 144.462 92.9186 144.265 94.2216 144.114C95.5246 143.947 96.4716 143.682 97.0625 143.318C97.6534 142.955 97.9489 142.364 97.9489 141.545V141.386C97.9489 139.402 97.3883 137.864 96.267 136.773C95.161 135.682 93.5095 135.136 91.3125 135.136C89.0246 135.136 87.2216 135.644 85.9034 136.659C84.6004 137.659 83.6989 138.773 83.1989 140L76.8125 138.545C77.5701 136.424 78.6761 134.712 80.1307 133.409C81.6004 132.091 83.2898 131.136 85.1989 130.545C87.108 129.939 89.1155 129.636 91.2216 129.636C92.6155 129.636 94.0928 129.803 95.6534 130.136C97.2292 130.455 98.6989 131.045 100.062 131.909C101.441 132.773 102.57 134.008 103.449 135.614C104.328 137.205 104.767 139.273 104.767 141.818V165H98.1307V160.227H97.858C97.4186 161.106 96.7595 161.97 95.8807 162.818C95.0019 163.667 93.8731 164.371 92.4943 164.932C91.1155 165.492 89.464 165.773 87.5398 165.773ZM89.017 160.318C90.8958 160.318 92.5019 159.947 93.8352 159.205C95.1837 158.462 96.2064 157.492 96.9034 156.295C97.6155 155.083 97.9716 153.788 97.9716 152.409V147.909C97.7292 148.152 97.2595 148.379 96.5625 148.591C95.8807 148.788 95.1004 148.962 94.2216 149.114C93.3428 149.25 92.4867 149.379 91.6534 149.5C90.8201 149.606 90.1231 149.697 89.5625 149.773C88.2443 149.939 87.0398 150.22 85.9489 150.614C84.8731 151.008 84.0095 151.576 83.358 152.318C82.7216 153.045 82.4034 154.015 82.4034 155.227C82.4034 156.909 83.0246 158.182 84.267 159.045C85.5095 159.894 87.0928 160.318 89.017 160.318ZM113.818 165V130.091H120.386V135.636H120.75C121.386 133.758 122.508 132.28 124.114 131.205C125.735 130.114 127.568 129.568 129.614 129.568C130.038 129.568 130.538 129.583 131.114 129.614C131.705 129.644 132.167 129.682 132.5 129.727V136.227C132.227 136.152 131.742 136.068 131.045 135.977C130.348 135.871 129.652 135.818 128.955 135.818C127.348 135.818 125.917 136.159 124.659 136.841C123.417 137.508 122.432 138.439 121.705 139.636C120.977 140.818 120.614 142.167 120.614 143.682V165H113.818ZM144.631 153.159L144.585 144.864H145.767L159.676 130.091H167.812L151.949 146.909H150.881L144.631 153.159ZM138.381 165V118.455H145.176V165H138.381ZM160.426 165L147.926 148.409L152.608 143.659L168.767 165H160.426ZM204.057 130.091L191.398 165H184.125L171.443 130.091H178.739L187.58 156.955H187.943L196.761 130.091H204.057ZM219.602 165.773C217.39 165.773 215.39 165.364 213.602 164.545C211.814 163.712 210.398 162.508 209.352 160.932C208.322 159.356 207.807 157.424 207.807 155.136C207.807 153.167 208.186 151.545 208.943 150.273C209.701 149 210.723 147.992 212.011 147.25C213.299 146.508 214.739 145.947 216.33 145.568C217.92 145.189 219.542 144.902 221.193 144.705C223.284 144.462 224.981 144.265 226.284 144.114C227.587 143.947 228.534 143.682 229.125 143.318C229.716 142.955 230.011 142.364 230.011 141.545V141.386C230.011 139.402 229.451 137.864 228.33 136.773C227.223 135.682 225.572 135.136 223.375 135.136C221.087 135.136 219.284 135.644 217.966 136.659C216.663 137.659 215.761 138.773 215.261 140L208.875 138.545C209.633 136.424 210.739 134.712 212.193 133.409C213.663 132.091 215.352 131.136 217.261 130.545C219.17 129.939 221.178 129.636 223.284 129.636C224.678 129.636 226.155 129.803 227.716 130.136C229.292 130.455 230.761 131.045 232.125 131.909C233.504 132.773 234.633 134.008 235.511 135.614C236.39 137.205 236.83 139.273 236.83 141.818V165H230.193V160.227H229.92C229.481 161.106 228.822 161.97 227.943 162.818C227.064 163.667 225.936 164.371 224.557 164.932C223.178 165.492 221.527 165.773 219.602 165.773ZM221.08 160.318C222.958 160.318 224.564 159.947 225.898 159.205C227.246 158.462 228.269 157.492 228.966 156.295C229.678 155.083 230.034 153.788 230.034 152.409V147.909C229.792 148.152 229.322 148.379 228.625 148.591C227.943 148.788 227.163 148.962 226.284 149.114C225.405 149.25 224.549 149.379 223.716 149.5C222.883 149.606 222.186 149.697 221.625 149.773C220.307 149.939 219.102 150.22 218.011 150.614C216.936 151.008 216.072 151.576 215.42 152.318C214.784 153.045 214.466 154.015 214.466 155.227C214.466 156.909 215.087 158.182 216.33 159.045C217.572 159.894 219.155 160.318 221.08 160.318ZM252.676 118.455V165H245.881V118.455H252.676ZM268.614 118.455V165H261.818V118.455H268.614ZM292.801 165.705C289.362 165.705 286.4 164.97 283.915 163.5C281.445 162.015 279.536 159.932 278.188 157.25C276.854 154.553 276.188 151.394 276.188 147.773C276.188 144.197 276.854 141.045 278.188 138.318C279.536 135.591 281.415 133.462 283.824 131.932C286.248 130.402 289.081 129.636 292.324 129.636C294.294 129.636 296.203 129.962 298.051 130.614C299.9 131.265 301.559 132.288 303.028 133.682C304.498 135.076 305.657 136.886 306.506 139.114C307.354 141.326 307.778 144.015 307.778 147.182V149.591H280.028V144.5H301.119C301.119 142.712 300.756 141.129 300.028 139.75C299.301 138.356 298.278 137.258 296.96 136.455C295.657 135.652 294.127 135.25 292.369 135.25C290.46 135.25 288.794 135.72 287.369 136.659C285.96 137.583 284.869 138.795 284.097 140.295C283.339 141.78 282.96 143.394 282.96 145.136V149.114C282.96 151.447 283.369 153.432 284.188 155.068C285.021 156.705 286.18 157.955 287.665 158.818C289.15 159.667 290.884 160.091 292.869 160.091C294.157 160.091 295.331 159.909 296.392 159.545C297.453 159.167 298.369 158.606 299.142 157.864C299.915 157.121 300.506 156.205 300.915 155.114L307.347 156.273C306.831 158.167 305.907 159.826 304.574 161.25C303.256 162.659 301.597 163.758 299.597 164.545C297.612 165.318 295.347 165.705 292.801 165.705ZM318.614 178.091C317.598 178.091 316.674 178.008 315.841 177.841C315.008 177.689 314.386 177.523 313.977 177.341L315.614 171.773C316.856 172.106 317.962 172.25 318.932 172.205C319.902 172.159 320.758 171.795 321.5 171.114C322.258 170.432 322.924 169.318 323.5 167.773L324.341 165.455L311.568 130.091H318.841L327.682 157.182H328.045L336.886 130.091H344.182L329.795 169.659C329.129 171.477 328.28 173.015 327.25 174.273C326.22 175.545 324.992 176.5 323.568 177.136C322.144 177.773 320.492 178.091 318.614 178.091Z" fill="white"/>
<defs>
<linearGradient id="paint0_linear_1_15" x1="173" y1="0" x2="242.5" y2="69.5" gradientUnits="userSpaceOnUse">
<stop stop-color="#C395FC"/>
<stop offset="1" stop-color="#4F65F5"/>
</linearGradient>
<linearGradient id="paint1_linear_1_15" x1="153" y1="8" x2="153" y2="48" gradientUnits="userSpaceOnUse">
<stop stop-color="white" stop-opacity="0.4"/>
<stop offset="1" stop-color="white" stop-opacity="0"/>
</linearGradient>
</defs>
</svg>
