<?xml version="1.0" encoding="UTF-8"?>
<svg version="1.1" xmlns="http://www.w3.org/2000/svg" width="16" height="16">
<path d="M0 0 C2.5 1.5 2.5 1.5 4 4 C4.791013 8.02098277 4.62153384 10.96411027 2.5 14.5 C-1.03588973 16.62153384 -3.97901723 16.791013 -8 16 C-10.5 14.5 -10.5 14.5 -12 12 C-12.791013 7.97901723 -12.62153384 5.03588973 -10.5 1.5 C-6.96411027 -0.62153384 -4.02098277 -0.791013 0 0 Z " fill="#A787F4" transform="translate(12,0)"/>
<path d="M0 0 C3.875 0.875 3.875 0.875 5 2 C5.1875 4.4375 5.1875 4.4375 5 7 C3 9 3 9 0.5 9.25 C-2 9 -2 9 -4 7 C-4 6.01 -4 5.02 -4 4 C-2.35 4 -0.7 4 1 4 C0.67 2.68 0.34 1.36 0 0 Z " fill="#1B1F34" transform="translate(8,4)"/>
<path d="M0 0 C0 0.66 0 1.32 0 2 C-0.99 2 -1.98 2 -3 2 C-3.2475 2.598125 -3.495 3.19625 -3.75 3.8125 C-5.16370012 6.28647521 -6.65055383 7.43370255 -9 9 C-8.6875 5.625 -8.6875 5.625 -8 2 C-4.77208445 -0.1519437 -3.71599191 -0.20086443 0 0 Z " fill="#C79FFB" transform="translate(9,0)"/>
<path d="M0 0 C0.99 0.99 1.98 1.98 3 3 C2.25 5.4375 2.25 5.4375 1 8 C-0.9375 9 -0.9375 9 -3 9 C-4.75 7.5625 -4.75 7.5625 -6 6 C-5.195625 5.7525 -4.39125 5.505 -3.5625 5.25 C-0.828919 4.27761141 -0.828919 4.27761141 -0.1875 1.875 C-0.125625 1.25625 -0.06375 0.6375 0 0 Z " fill="#5F65D8" transform="translate(13,7)"/>
<path d="M0 0 C2 2 2 2 2.125 5.125 C2.08375 6.07375 2.0425 7.0225 2 8 C1.01 8.495 1.01 8.495 0 9 C-0.309375 8.21625 -0.61875 7.4325 -0.9375 6.625 C-1.92875038 4.07669872 -1.92875038 4.07669872 -3 2 C-2.01 1.34 -1.02 0.68 0 0 Z " fill="#8178F3" transform="translate(14,2)"/>
<path d="M0 0 C3.465 1.485 3.465 1.485 7 3 C6.67 3.66 6.34 4.32 6 5 C4.02 5 2.04 5 0 5 C-0.33 4.01 -0.66 3.02 -1 2 C-0.67 1.34 -0.34 0.68 0 0 Z " fill="#8178F4" transform="translate(4,11)"/>
</svg>
